# xmcd
#
# Track frame offsets:
# 150
# 21367
# 41155
# 58397
# 76107
# 103254
# 124100
# 147237
# 174334
# 197627
#
# Disc length: 2869 seconds
#
#
# Revision: 0
# Processed by: cddbd v1.5.2PL0 Copyright (c) Steve Scherf et al.
# Submitted via: FreeRIP 2.945 
#
DISCID=8c0b330a
DTITLE=Heritage Singers - Because of Love
DYEAR=1900
DGENRE=Contemporary Christian
TTITLE0=Because of Love
TTITLE1=Alone in His Presence (Psalm 16:11)
TTITLE2=Total Praise
TTITLE3=Be Strong
TTITLE4=So Amazing (Psalm 139)
TTITLE5=Bryan's Hymn (When I Turn to You)
TTITLE6=Breathe On Me
TTITLE7=You Saved Me
TTITLE8=No More Night
TTITLE9=I Surrender All
EXTD=
EXTT0=
EXTT1=
EXTT2=
EXTT3=
EXTT4=
EXTT5=
EXTT6=
EXTT7=
EXTT8=
EXTT9=
PLAYORDER=
